<?xml version="1.0" encoding="UTF-8"?>
<svg id="b" width="40px" height="40px" version="1.1" viewBox="0 0 40 40" xmlns="http://www.w3.org/2000/svg" xmlns:xlink="http://www.w3.org/1999/xlink"><defs><radialGradient id="a" cx="24.683" cy="11.531" r="5.8551" gradientTransform="matrix(1.9827 0 0 1.5831 -23.184 -4.7952)" gradientUnits="userSpaceOnUse"><stop style="stop-color:#fbf8db" offset="0"/><stop style="stop-color:#fff7b2;stop-opacity:0" offset="1"/></radialGradient></defs><g><g transform="translate(-3.0151 4.1061)"><g transform="scale(.72072 1.3875)" style="fill:#ffffff;stroke-width:.70287" aria-label="{"><path d="m17.817 22.451v1.9768h-.85113q-3.4182 0-4.5851-1.0159-1.1531-1.0159-1.1531-4.0497v-3.281q0-2.0729-.7413-2.8691-.74131-.79622-2.6907-.79622h-.8374v-1.9631h.8374q1.9631 0 2.6907-.78249.7413-.79622.7413-2.8417v-3.2947q0-3.0339 1.1531-4.036 1.1669-1.0159 4.5851-1.0159h.85113v1.9631h-.9335q-1.9356 0-2.5259.60403-.5903.60403-.5903 2.5397v3.4045q0 2.1553-.63148 3.13-.61776.97468-2.1278 1.3179 1.5238.37065 2.1416 1.3453.61775.97468.61775 3.1162v3.4045q0 1.9356.5903 2.5397.5903.60403 2.5259.60403z" style="fill:#ffffff"/></g><g transform="scale(-.72072 1.3875)" style="fill:#ffffff;stroke-width:.70287" aria-label="{"><path d="m-46.05 22.451v1.9768h-.85113q-3.4182 0-4.5851-1.0159-1.1531-1.0159-1.1531-4.0497v-3.281q0-2.0729-.7413-2.8691-.74131-.79622-2.6907-.79622h-.8374v-1.9631h.8374q1.9631 0 2.6907-.78249.7413-.79622.7413-2.8417v-3.2947q0-3.0339 1.1531-4.036 1.1669-1.0159 4.5851-1.0159h.85113v1.9631h-.9335q-1.9356 0-2.5259.60403-.5903.60403-.5903 2.5397v3.4045q0 2.1553-.63148 3.13-.61776.97468-2.1278 1.3179 1.5238.37065 2.1416 1.3453.61775.97468.61775 3.1162v3.4045q0 1.9356.5903 2.5397.5903.60403 2.5259.60403z" style="fill:#ffffff"/></g><g transform="matrix(.78247 0 0 .83785 4.2357 -4.427)"><path d="m23.927 5.0963.002.00977c-5.1993.041248-14.072 2.4366-14.072 14.197 0 9.7698 9.4266 8.7577 9.5625 20.359 0 0 .43593 2.4286 4.699 2.4413 4.0966-.04295 4.4631-2.4471 4.4631-2.4471.13595-11.602 9.5625-10.592 9.5625-20.361 0-11.865-9.0382-14.199-14.217-14.199z" style="fill:#ffec33;stroke-width:2;stroke:#fff590"/><path d="m37.365 13.459a11.609 9.2691 0 01-11.493 9.2687 11.609 9.2691 0 01-11.723-9.0834 11.609 9.2691 0 0111.259-9.4502 11.609 9.2691 0 0111.948 8.8945" style="fill:url(#a);paint-order:fill markers stroke"/><path d="m28.37 41.706a4.3697 2.7049 0 01-4.3261 2.7048 4.3697 2.7049 0 01-4.4125-2.6508 4.3697 2.7049 0 014.2379-2.7578 4.3697 2.7049 0 014.4972 2.5956" style="fill:#8a8a89;paint-order:fill markers stroke"/><rect x="18.065" y="39.671" width="11.869" height="1.9966" ry=".99832" style="fill:#b8b8b8;paint-order:fill markers stroke;stroke-linecap:round;stroke-width:.70434;stroke:#a1a1a1"/><rect x="18.065" y="37.56" width="11.869" height="1.9966" ry=".99832" style="fill:#b8b8b8;paint-order:fill markers stroke;stroke-linecap:round;stroke-width:.70434;stroke:#a1a1a1"/></g></g></g></svg>
